<svg
  xmlns="http://www.w3.org/2000/svg"
  version="1.1"
  width="400px"
  height="400px"
  style="shape-rendering: geometricPrecision; text-rendering: geometricPrecision; image-rendering: optimizeQuality; fill-rule: evenodd; clip-rule: evenodd"
  xmlns:xlink="http://www.w3.org/1999/xlink"
>
  <g><path
      style="opacity: 1"
      fill="#05171a"
      d="M 359.5,108.5 C 357.176,108.338 355.509,107.172 354.5,105C 352.19,104.503 349.857,104.337 347.5,104.5C 347.196,101.478 346.696,98.4781 346,95.5C 341.138,94.4292 339.305,91.4292 340.5,86.5C 336.922,86.5488 333.589,87.2154 330.5,88.5C 319.389,83.8195 310.555,86.4862 304,96.5C 295.648,115.531 288.148,134.865 281.5,154.5C 277.617,138.577 274.451,122.244 272,105.5C 270.726,102.064 268.559,99.3974 265.5,97.5C 252.613,92.5194 243.446,96.5194 238,109.5C 231.433,148.807 225.433,188.14 220,227.5C 220.573,229.641 221.406,231.641 222.5,233.5C 223.167,234.5 223.833,235.5 224.5,236.5C 223.836,237.648 223.669,238.981 224,240.5C 222.391,239.85 220.891,240.35 219.5,242C 218.207,242.49 216.873,242.657 215.5,242.5C 215.511,240.983 216.177,239.816 217.5,239C 216.594,237.301 216.261,235.467 216.5,233.5C 215.5,233.5 214.5,233.5 213.5,233.5C 213.681,228.253 212.681,223.253 210.5,218.5C 211.836,215.991 212.67,213.324 213,210.5C 217.746,208.782 217.579,207.782 212.5,207.5C 212.468,197.817 212.801,188.151 213.5,178.5C 216.474,160.968 219.807,143.635 223.5,126.5C 224.75,126.423 225.583,125.756 226,124.5C 226.333,120.167 226.667,115.833 227,111.5C 227.333,111.833 227.667,112.167 228,112.5C 229.741,110.459 229.908,108.292 228.5,106C 227.552,105.517 226.552,105.351 225.5,105.5C 225.35,101.839 226.85,100.839 230,102.5C 230.483,101.552 230.649,100.552 230.5,99.5C 232.973,99.9118 234.306,98.9118 234.5,96.5C 239.4,89.0319 246.4,84.5319 255.5,83C 224.343,60.0866 189.676,51.5866 151.5,57.5C 115.871,64.1498 87.5373,82.1498 66.5,111.5C 64.6098,113.59 62.9431,115.923 61.5,118.5C 63.7932,119.027 66.1265,118.694 68.5,117.5C 71.5827,117.084 74.5827,116.417 77.5,115.5C 88.2669,113.099 99.1003,111.099 110,109.5C 115.862,108.786 121.028,110.12 125.5,113.5C 123.697,115.977 121.864,115.977 120,113.5C 116.324,113.561 112.49,113.727 108.5,114C 110.594,115.352 112.927,115.852 115.5,115.5C 115.67,116.822 115.337,117.989 114.5,119C 111.635,119.183 108.969,119.683 106.5,120.5C 86.1671,125.166 65.8337,129.999 45.5,135C 35.9944,140.38 32.661,148.214 35.5,158.5C 39.3625,168.068 46.3625,171.235 56.5,168C 65.9816,165.741 75.4816,163.574 85,161.5C 86.0698,161.528 86.9032,161.861 87.5,162.5C 68.4985,187.674 49.6651,213.007 31,238.5C 28.3462,245.346 27.8462,252.346 29.5,259.5C 28.596,260.209 28.2627,261.209 28.5,262.5C 27.5,262.5 26.5,262.5 25.5,262.5C 25.8333,260.5 26.1667,258.5 26.5,256.5C 25.5,256.5 24.5,256.5 23.5,256.5C 22.8333,252.5 22.1667,252.5 21.5,256.5C 20.5,256.5 19.5,256.5 18.5,256.5C 16.8263,242.876 20.9929,231.543 31,222.5C 31.0382,211.164 30.5382,199.831 29.5,188.5C 28.5147,186.228 27.6813,183.895 27,181.5C 26.6667,175.5 26.3333,169.5 26,163.5C 21.3709,150.019 24.5375,138.686 35.5,129.5C 39.2485,127.542 42.7485,125.209 46,122.5C 78.8635,66.3121 128.03,40.4788 193.5,45C 202.601,47.3498 211.768,49.5164 221,51.5C 247.769,61.7575 270.936,77.4241 290.5,98.5C 291.672,98.0814 292.672,97.4147 293.5,96.5C 301.653,79.7553 314.653,73.922 332.5,79C 341.326,83.1203 346.993,89.9536 349.5,99.5C 353.476,101.81 356.809,104.81 359.5,108.5 Z"
    /></g>
  <g><path
      style="opacity: 0.859"
      fill="#0f1211"
      d="M 369.5,119.5 C 368.202,118.884 367.202,118.884 366.5,119.5C 363.339,116.343 361.005,112.676 359.5,108.5C 356.809,104.81 353.476,101.81 349.5,99.5C 346.993,89.9536 341.326,83.1203 332.5,79C 314.653,73.922 301.653,79.7553 293.5,96.5C 292.672,97.4147 291.672,98.0814 290.5,98.5C 270.936,77.4241 247.769,61.7575 221,51.5C 211.768,49.5164 202.601,47.3498 193.5,45C 128.03,40.4788 78.8635,66.3121 46,122.5C 42.7485,125.209 39.2485,127.542 35.5,129.5C 24.5375,138.686 21.3709,150.019 26,163.5C 26.3333,169.5 26.6667,175.5 27,181.5C 27.6813,183.895 28.5147,186.228 29.5,188.5C 30.5382,199.831 31.0382,211.164 31,222.5C 20.9929,231.543 16.8263,242.876 18.5,256.5C 19.0454,261.586 20.7121,266.253 23.5,270.5C 22.4396,276.924 22.9396,283.258 25,289.5C 28.3564,294.345 31.8564,299.012 35.5,303.5C 29.9524,299.792 25.7857,294.792 23,288.5C 21.6529,279.005 19.6529,269.671 17,260.5C 15.1416,249.867 16.8083,239.867 22,230.5C 25.3456,227.167 27.8456,223.333 29.5,219C 29.0415,209.284 28.5415,199.45 28,189.5C 23.8133,182.26 22.6467,174.594 24.5,166.5C 18.1981,146.107 24.6981,131.441 44,122.5C 72.5474,71.8462 116.047,45.1795 174.5,42.5C 211.045,43.1178 243.378,54.9511 271.5,78C 277.681,84.3481 284.014,90.5148 290.5,96.5C 299.375,78.0639 313.708,71.5639 333.5,77C 342.993,81.162 348.826,88.3286 351,98.5C 358.806,104.134 364.973,111.134 369.5,119.5 Z"
    /></g>
  <g><path
      style="opacity: 1"
      fill="#faf9f7"
      d="M 151.5,57.5 C 157.228,59.9766 157.895,63.4766 153.5,68C 122.559,75.1546 97.2254,90.9879 77.5,115.5C 74.5827,116.417 71.5827,117.084 68.5,117.5C 67.2702,115.703 66.6036,113.703 66.5,111.5C 87.5373,82.1498 115.871,64.1498 151.5,57.5 Z"
    /></g>
  <g><path
      style="opacity: 1"
      fill="#fb8e15"
      d="M 234.5,96.5 C 233.518,97.1408 232.518,97.8075 231.5,98.5C 221.676,90.9015 211.01,89.5681 199.5,94.5C 200.622,86.7487 197.955,80.7487 191.5,76.5C 187.237,66.8704 179.904,63.3704 169.5,66C 159.697,71.4509 157.197,79.2842 162,89.5C 164.037,91.7059 166.203,93.7059 168.5,95.5C 172.309,102.738 178.309,106.405 186.5,106.5C 184.601,110.301 183.268,114.301 182.5,118.5C 181.833,119.5 181.167,120.5 180.5,121.5C 173.508,103.838 160.841,97.6712 142.5,103C 137.392,106.107 132.892,109.94 129,114.5C 127.862,114.011 126.695,113.678 125.5,113.5C 121.028,110.12 115.862,108.786 110,109.5C 99.1003,111.099 88.2669,113.099 77.5,115.5C 97.2254,90.9879 122.559,75.1546 153.5,68C 157.895,63.4766 157.228,59.9766 151.5,57.5C 189.676,51.5866 224.343,60.0866 255.5,83C 246.4,84.5319 239.4,89.0319 234.5,96.5 Z"
    /></g>
  <g><path
      style="opacity: 1"
      fill="#fef9f2"
      d="M 212.5,68.5 C 219.488,67.6478 221.822,70.4811 219.5,77C 210.838,79.5009 208.504,76.6675 212.5,68.5 Z"
    /></g>
  <g><path
      style="opacity: 1"
      fill="#0b1517"
      d="M 191.5,76.5 C 191.715,92.982 184.048,99.3153 168.5,95.5C 166.203,93.7059 164.037,91.7059 162,89.5C 157.197,79.2842 159.697,71.4509 169.5,66C 179.904,63.3704 187.237,66.8704 191.5,76.5 Z"
    /></g>
  <g><path
      style="opacity: 1"
      fill="#f0f2f1"
      d="M 178.5,74.5 C 177.874,80.4533 174.54,83.12 168.5,82.5C 168.685,75.6327 172.018,72.9661 178.5,74.5 Z"
    /></g>
  <g><path
      style="opacity: 1"
      fill="#dddece"
      d="M 178.5,74.5 C 183.465,78.1621 183.798,82.3288 179.5,87C 174.283,89.3939 170.617,87.8939 168.5,82.5C 174.54,83.12 177.874,80.4533 178.5,74.5 Z"
    /></g>
  <g><path
      style="opacity: 1"
      fill="#fef5e9"
      d="M 228.5,78.5 C 235.004,78.1377 236.671,80.6377 233.5,86C 227.785,86.401 226.119,83.901 228.5,78.5 Z"
    /></g>
  <g><path
      style="opacity: 1"
      fill="#fef9f2"
      d="M 125.5,84.5 C 132.706,84.2021 135.873,87.5355 135,94.5C 131.011,99.3557 126.678,99.689 122,95.5C 120.662,90.9597 121.829,87.293 125.5,84.5 Z"
    /></g>
  <g><path
      style="opacity: 1"
      fill="#fcfcfc"
      d="M 330.5,88.5 C 330.5,89.1667 330.833,89.5 331.5,89.5C 326.775,93.9765 324.608,99.6432 325,106.5C 322.554,139.854 319.887,173.187 317,206.5C 314.163,213.502 308.997,217.502 301.5,218.5C 300.732,217.737 300.232,216.737 300,215.5C 299.643,197.406 300.809,179.406 303.5,161.5C 304.473,159.052 304.806,156.385 304.5,153.5C 304.323,148.134 304.656,142.8 305.5,137.5C 305.715,133.982 304.881,133.649 303,136.5C 296.529,152.914 289.862,169.247 283,185.5C 278.356,190.877 272.522,193.877 265.5,194.5C 263.137,182.575 261.137,170.575 259.5,158.5C 258.52,146.306 256.52,134.306 253.5,122.5C 248.703,155.501 243.87,188.501 239,221.5C 235.864,228.809 230.364,232.809 222.5,233.5C 221.406,231.641 220.573,229.641 220,227.5C 225.433,188.14 231.433,148.807 238,109.5C 243.446,96.5194 252.613,92.5194 265.5,97.5C 264.957,98.7421 264.623,100.075 264.5,101.5C 268.348,122.894 272.515,144.227 277,165.5C 277.876,161.573 279.376,157.906 281.5,154.5C 288.148,134.865 295.648,115.531 304,96.5C 310.555,86.4862 319.389,83.8195 330.5,88.5 Z"
    /></g>
  <g><path
      style="opacity: 1"
      fill="#f24711"
      d="M 191.5,76.5 C 197.955,80.7487 200.622,86.7487 199.5,94.5C 194.54,97.7923 190.207,101.792 186.5,106.5C 178.309,106.405 172.309,102.738 168.5,95.5C 184.048,99.3153 191.715,92.982 191.5,76.5 Z"
    /></g>
  <g><path
      style="opacity: 1"
      fill="#e2e4d4"
      d="M 331.5,89.5 C 336.919,93.9921 338.919,99.8254 337.5,107C 335.536,141.853 333.369,176.687 331,211.5C 328.376,223.13 321.209,227.964 309.5,226C 306.405,225.065 304.071,223.231 302.5,220.5C 302.167,219.833 301.833,219.167 301.5,218.5C 308.997,217.502 314.163,213.502 317,206.5C 319.887,173.187 322.554,139.854 325,106.5C 324.608,99.6432 326.775,93.9765 331.5,89.5 Z"
    /></g>
  <g><path
      style="opacity: 1"
      fill="#fcfcfc"
      d="M 220.5,105.5 C 216.845,108 214.011,111.333 212,115.5C 205.505,155.802 197.505,195.802 188,235.5C 185.117,240.05 181.284,243.55 176.5,246C 170.037,248.449 163.37,249.949 156.5,250.5C 153.921,242.037 152.088,233.371 151,224.5C 145.699,193.06 140.866,161.56 136.5,130C 137.045,119.453 142.545,113.287 153,111.5C 156.16,111.842 158.994,112.842 161.5,114.5C 155.647,116.719 152.98,121.053 153.5,127.5C 158.297,158.507 163.13,189.507 168,220.5C 168.62,224.221 169.453,227.888 170.5,231.5C 173.367,221.964 175.701,212.298 177.5,202.5C 183.117,173.464 188.951,144.464 195,115.5C 200.264,103.61 208.764,100.277 220.5,105.5 Z"
    /></g>
  <g><path
      style="opacity: 1"
      fill="#071718"
      d="M 234.5,96.5 C 234.306,98.9118 232.973,99.9118 230.5,99.5C 230.649,100.552 230.483,101.552 230,102.5C 226.85,100.839 225.35,101.839 225.5,105.5C 226.552,105.351 227.552,105.517 228.5,106C 229.908,108.292 229.741,110.459 228,112.5C 227.667,112.167 227.333,111.833 227,111.5C 226.667,115.833 226.333,120.167 226,124.5C 225.583,125.756 224.75,126.423 223.5,126.5C 223.647,122.094 224.314,117.761 225.5,113.5C 224.823,110.133 223.157,107.466 220.5,105.5C 208.764,100.277 200.264,103.61 195,115.5C 188.951,144.464 183.117,173.464 177.5,202.5C 176.778,202.082 176.278,201.416 176,200.5C 172.614,173.131 168.947,145.798 165,118.5C 164.34,116.676 163.173,115.343 161.5,114.5C 158.994,112.842 156.16,111.842 153,111.5C 142.545,113.287 137.045,119.453 136.5,130C 140.866,161.56 145.699,193.06 151,224.5C 152.088,233.371 153.921,242.037 156.5,250.5C 164.363,261.314 174.363,263.481 186.5,257C 194.879,250.08 200.045,241.247 202,230.5C 205.784,213.025 209.617,195.691 213.5,178.5C 212.801,188.151 212.468,197.817 212.5,207.5C 217.579,207.782 217.746,208.782 213,210.5C 212.67,213.324 211.836,215.991 210.5,218.5C 212.681,223.253 213.681,228.253 213.5,233.5C 214.5,233.5 215.5,233.5 216.5,233.5C 216.261,235.467 216.594,237.301 217.5,239C 216.177,239.816 215.511,240.983 215.5,242.5C 216.873,242.657 218.207,242.49 219.5,242C 220.891,240.35 222.391,239.85 224,240.5C 223.669,238.981 223.836,237.648 224.5,236.5C 230.727,242.193 237.727,243.026 245.5,239C 247.709,237.127 249.542,234.96 251,232.5C 255.659,207.906 258.492,183.239 259.5,158.5C 261.137,170.575 263.137,182.575 265.5,194.5C 272.37,204.047 280.537,205.047 290,197.5C 294.981,184.108 299.148,170.442 302.5,156.5C 303.451,157.919 303.784,159.585 303.5,161.5C 300.809,179.406 299.643,197.406 300,215.5C 300.232,216.737 300.732,217.737 301.5,218.5C 301.833,219.167 302.167,219.833 302.5,220.5C 301.504,220.586 300.671,220.252 300,219.5C 299.481,220.516 298.647,221.182 297.5,221.5C 294.183,219.182 291.183,216.516 288.5,213.5C 284.534,214.162 280.534,214.495 276.5,214.5C 274.716,214.107 273.05,213.441 271.5,212.5C 269.908,210.312 268.574,210.312 267.5,212.5C 267.109,223.876 264.276,234.543 259,244.5C 254.923,249.417 249.757,252.417 243.5,253.5C 240.5,253.5 237.5,253.5 234.5,253.5C 232.297,253.396 230.297,252.73 228.5,251.5C 226.98,249.471 225.98,249.471 225.5,251.5C 227.728,260.395 233.395,265.395 242.5,266.5C 244.857,266.663 247.19,266.497 249.5,266C 250.411,263.585 252.078,262.085 254.5,261.5C 256.343,263.853 257.677,266.52 258.5,269.5C 257.154,271.537 255.82,273.537 254.5,275.5C 253.493,277.361 253.16,280.028 253.5,283.5C 252.167,283.5 250.833,283.5 249.5,283.5C 249.587,280.402 249.087,280.068 248,282.5C 247.722,281.584 247.222,280.918 246.5,280.5C 246.5,279.5 246.5,278.5 246.5,277.5C 241.654,276.788 236.987,275.455 232.5,273.5C 230.035,271.686 227.368,270.353 224.5,269.5C 220.685,282.148 212.351,290.314 199.5,294C 183.865,299.444 170.032,296.611 158,285.5C 153.187,289.824 147.687,292.991 141.5,295C 131.846,297.031 122.179,298.864 112.5,300.5C 108.019,301.037 106.686,299.37 108.5,295.5C 106.143,295.337 103.81,295.503 101.5,296C 102.711,296.893 102.711,297.726 101.5,298.5C 100.646,297.052 99.6461,295.719 98.5,294.5C 101.592,293.145 104.592,291.812 107.5,290.5C 116.061,288.361 124.728,286.528 133.5,285C 149.698,280.776 154.032,271.276 146.5,256.5C 143.214,264.953 137.214,270.453 128.5,273C 104.923,278.414 81.256,283.414 57.5,288C 53.446,288.694 49.446,288.527 45.5,287.5C 44.8333,287.5 44.5,287.167 44.5,286.5C 42.3263,284.919 39.9929,283.419 37.5,282C 38.3081,281.692 38.9747,281.192 39.5,280.5C 38.7542,279.264 38.4208,277.93 38.5,276.5C 33.4637,275.495 33.4637,274.162 38.5,272.5C 43.7248,275.722 49.3914,276.889 55.5,276C 79.8,270.561 104.133,265.227 128.5,260C 138.696,252.597 141.196,243.097 136,231.5C 134.549,229.536 132.716,228.203 130.5,227.5C 128.311,226.438 125.978,225.772 123.5,225.5C 106.03,228.743 88.6966,232.41 71.5,236.5C 87.7084,213.364 104.875,190.364 123,167.5C 129.92,154.35 130.253,141.017 124,127.5C 122.629,125.959 121.129,124.625 119.5,123.5C 115.569,120.962 111.235,119.962 106.5,120.5C 108.969,119.683 111.635,119.183 114.5,119C 115.337,117.989 115.67,116.822 115.5,115.5C 112.927,115.852 110.594,115.352 108.5,114C 112.49,113.727 116.324,113.561 120,113.5C 121.864,115.977 123.697,115.977 125.5,113.5C 126.695,113.678 127.862,114.011 129,114.5C 132.892,109.94 137.392,106.107 142.5,103C 160.841,97.6712 173.508,103.838 180.5,121.5C 180.56,122.043 180.893,122.376 181.5,122.5C 182.429,121.311 182.762,119.978 182.5,118.5C 183.268,114.301 184.601,110.301 186.5,106.5C 190.207,101.792 194.54,97.7923 199.5,94.5C 211.01,89.5681 221.676,90.9015 231.5,98.5C 232.518,97.8075 233.518,97.1408 234.5,96.5 Z"
    /></g>
  <g><path
      style="opacity: 1"
      fill="#e18418"
      d="M 66.5,111.5 C 66.6036,113.703 67.2702,115.703 68.5,117.5C 66.1265,118.694 63.7932,119.027 61.5,118.5C 62.9431,115.923 64.6098,113.59 66.5,111.5 Z"
    /></g>
  <g><path
      style="opacity: 0.02"
      fill="#261a16"
      d="M 369.5,119.5 C 372.5,120.5 374.5,122.5 375.5,125.5C 373.167,123.833 371.167,121.833 369.5,119.5 Z"
    /></g>
  <g><path
      style="opacity: 1"
      fill="#fcfcfc"
      d="M 106.5,120.5 C 111.235,119.962 115.569,120.962 119.5,123.5C 117.866,124.972 116.366,126.638 115,128.5C 114.5,134.01 114.667,139.51 115.5,145C 115.497,149.01 114.664,152.844 113,156.5C 92.5318,184.602 71.6984,212.435 50.5,240C 57.5975,238.97 64.5975,237.803 71.5,236.5C 88.6966,232.41 106.03,228.743 123.5,225.5C 125.978,225.772 128.311,226.438 130.5,227.5C 126.967,231.899 124.467,236.899 123,242.5C 121.127,244.709 118.96,246.542 116.5,248C 88.7728,254.641 60.7728,260.474 32.5,265.5C 31.5,263.5 30.5,261.5 29.5,259.5C 27.8462,252.346 28.3462,245.346 31,238.5C 49.6651,213.007 68.4985,187.674 87.5,162.5C 91.5846,156.568 95.918,150.734 100.5,145C 99.8333,144.833 99.1667,144.667 98.5,144.5C 77.5545,149.49 56.5545,154.157 35.5,158.5C 32.661,148.214 35.9944,140.38 45.5,135C 65.8337,129.999 86.1671,125.166 106.5,120.5 Z"
    /></g>
  <g><path
      style="opacity: 1"
      fill="#704a1a"
      d="M 182.5,118.5 C 182.762,119.978 182.429,121.311 181.5,122.5C 180.893,122.376 180.56,122.043 180.5,121.5C 181.167,120.5 181.833,119.5 182.5,118.5 Z"
    /></g>
  <g><path
      style="opacity: 1"
      fill="#e1e1d1"
      d="M 161.5,114.5 C 163.173,115.343 164.34,116.676 165,118.5C 168.947,145.798 172.614,173.131 176,200.5C 176.278,201.416 176.778,202.082 177.5,202.5C 175.701,212.298 173.367,221.964 170.5,231.5C 169.453,227.888 168.62,224.221 168,220.5C 163.13,189.507 158.297,158.507 153.5,127.5C 152.98,121.053 155.647,116.719 161.5,114.5 Z"
    /></g>
  <g><path
      style="opacity: 1"
      fill="#e0e2d1"
      d="M 265.5,97.5 C 268.559,99.3974 270.726,102.064 272,105.5C 274.451,122.244 277.617,138.577 281.5,154.5C 279.376,157.906 277.876,161.573 277,165.5C 272.515,144.227 268.348,122.894 264.5,101.5C 264.623,100.075 264.957,98.7421 265.5,97.5 Z"
    /></g>
  <g><path
      style="opacity: 1"
      fill="#e2e4d4"
      d="M 119.5,123.5 C 121.129,124.625 122.629,125.959 124,127.5C 130.253,141.017 129.92,154.35 123,167.5C 104.875,190.364 87.7084,213.364 71.5,236.5C 64.5975,237.803 57.5975,238.97 50.5,240C 71.6984,212.435 92.5318,184.602 113,156.5C 114.664,152.844 115.497,149.01 115.5,145C 114.667,139.51 114.5,134.01 115,128.5C 116.366,126.638 117.866,124.972 119.5,123.5 Z"
    /></g>
  <g><path
      style="opacity: 0.737"
      fill="#44271d"
      d="M 375.5,125.5 C 377.262,126.262 378.262,127.596 378.5,129.5C 376.738,128.738 375.738,127.404 375.5,125.5 Z"
    /></g>
  <g><path
      style="opacity: 1"
      fill="#e2e4d4"
      d="M 87.5,162.5 C 86.9032,161.861 86.0698,161.528 85,161.5C 75.4816,163.574 65.9816,165.741 56.5,168C 46.3625,171.235 39.3625,168.068 35.5,158.5C 56.5545,154.157 77.5545,149.49 98.5,144.5C 99.1667,144.667 99.8333,144.833 100.5,145C 95.918,150.734 91.5846,156.568 87.5,162.5 Z"
    /></g>
  <g><path
      style="opacity: 0.173"
      fill="#181210"
      d="M 380.5,133.5 C 381.268,134.263 381.768,135.263 382,136.5C 382.262,158.672 381.762,180.672 380.5,202.5C 380.957,179.473 380.957,156.473 380.5,133.5 Z"
    /></g>
  <g><path
      style="opacity: 1"
      fill="#e3e4d4"
      d="M 259.5,158.5 C 258.492,183.239 255.659,207.906 251,232.5C 249.542,234.96 247.709,237.127 245.5,239C 237.727,243.026 230.727,242.193 224.5,236.5C 223.833,235.5 223.167,234.5 222.5,233.5C 230.364,232.809 235.864,228.809 239,221.5C 243.87,188.501 248.703,155.501 253.5,122.5C 256.52,134.306 258.52,146.306 259.5,158.5 Z"
    /></g>
  <g><path
      style="opacity: 1"
      fill="#92969a"
      d="M 304.5,153.5 C 304.806,156.385 304.473,159.052 303.5,161.5C 303.784,159.585 303.451,157.919 302.5,156.5C 302.427,154.973 303.094,153.973 304.5,153.5 Z"
    /></g>
  <g><path
      style="opacity: 1"
      fill="#e1e3d3"
      d="M 304.5,153.5 C 303.094,153.973 302.427,154.973 302.5,156.5C 299.148,170.442 294.981,184.108 290,197.5C 280.537,205.047 272.37,204.047 265.5,194.5C 272.522,193.877 278.356,190.877 283,185.5C 289.862,169.247 296.529,152.914 303,136.5C 304.881,133.649 305.715,133.982 305.5,137.5C 304.656,142.8 304.323,148.134 304.5,153.5 Z"
    /></g>
  <g><path
      style="opacity: 1"
      fill="#fdf7ea"
      d="M 37.5,177.5 C 39.5,178.5 41.5,179.5 43.5,180.5C 44.6298,182.315 45.2964,184.315 45.5,186.5C 43.8561,186.714 42.3561,186.38 41,185.5C 40.3848,183.884 39.3848,182.551 38,181.5C 37.51,180.207 37.3433,178.873 37.5,177.5 Z"
    /></g>
  <g><path
      style="opacity: 1"
      fill="#a13914"
      d="M 131.5,176.5 C 131.56,175.957 131.893,175.624 132.5,175.5C 133.598,178.753 134.264,182.086 134.5,185.5C 133.184,182.592 132.184,179.592 131.5,176.5 Z"
    /></g>
  <g><path
      style="opacity: 1"
      fill="#ee4b0d"
      d="M 50.5,193.5 C 49.286,191.851 47.9527,190.185 46.5,188.5C 48.1667,187.833 49.8333,187.167 51.5,186.5C 49.4478,185.389 48.1145,183.723 47.5,181.5C 51.8618,181.244 56.1951,181.077 60.5,181C 56.9228,185.066 53.5894,189.232 50.5,193.5 Z"
    /></g>
  <g><path
      style="opacity: 1"
      fill="#f49219"
      d="M 37.5,177.5 C 37.3433,178.873 37.51,180.207 38,181.5C 39.3848,182.551 40.3848,183.884 41,185.5C 42.3561,186.38 43.8561,186.714 45.5,186.5C 45.2964,184.315 44.6298,182.315 43.5,180.5C 44.9587,180.433 46.2921,180.766 47.5,181.5C 48.1145,183.723 49.4478,185.389 51.5,186.5C 49.8333,187.167 48.1667,187.833 46.5,188.5C 47.9527,190.185 49.286,191.851 50.5,193.5C 50.44,194.043 50.1067,194.376 49.5,194.5C 41.5095,191.678 36.5095,186.178 34.5,178C 35.0329,174.935 36.0329,174.768 37.5,177.5 Z"
    /></g>
  <g><path
      style="opacity: 1"
      fill="#ee460e"
      d="M 131.5,176.5 C 132.184,179.592 133.184,182.592 134.5,185.5C 135.263,188.141 135.43,190.808 135,193.5C 129.615,199.884 124.615,206.55 120,213.5C 117.113,215.184 113.946,216.184 110.5,216.5C 107.848,216.41 105.515,217.076 103.5,218.5C 101.645,218.728 100.812,218.061 101,216.5C 110.999,203.006 121.166,189.673 131.5,176.5 Z"
    /></g>
  <g><path
      style="opacity: 1"
      fill="#e2e3d4"
      d="M 220.5,105.5 C 223.157,107.466 224.823,110.133 225.5,113.5C 224.314,117.761 223.647,122.094 223.5,126.5C 219.807,143.635 216.474,160.968 213.5,178.5C 209.617,195.691 205.784,213.025 202,230.5C 200.045,241.247 194.879,250.08 186.5,257C 174.363,263.481 164.363,261.314 156.5,250.5C 163.37,249.949 170.037,248.449 176.5,246C 181.284,243.55 185.117,240.05 188,235.5C 197.505,195.802 205.505,155.802 212,115.5C 214.011,111.333 216.845,108 220.5,105.5 Z"
    /></g>
  <g><path
      style="opacity: 1"
      fill="#c95712"
      d="M 41.5,202.5 C 43.4646,202.948 43.7979,203.948 42.5,205.5C 41.6143,204.675 41.281,203.675 41.5,202.5 Z"
    /></g>
  <g><path
      style="opacity: 1"
      fill="#712813"
      d="M 368.5,158.5 C 368.742,179.354 368.075,200.021 366.5,220.5C 366.689,199.659 367.356,178.992 368.5,158.5 Z"
    /></g>
  <g><path
      style="opacity: 1"
      fill="#dd871a"
      d="M 137.5,213.5 C 137.737,214.791 137.404,215.791 136.5,216.5C 135.325,216.719 134.325,216.386 133.5,215.5C 134.667,213.833 135.833,212.167 137,210.5C 137.483,211.448 137.649,212.448 137.5,213.5 Z"
    /></g>
  <g><path
      style="opacity: 1"
      fill="#fc8a0c"
      d="M 271.5,212.5 C 273.05,213.441 274.716,214.107 276.5,214.5C 277.5,215.833 278.5,217.167 279.5,218.5C 278.662,218.842 278.328,219.508 278.5,220.5C 275.427,218.431 273.094,215.764 271.5,212.5 Z"
    /></g>
  <g><path
      style="opacity: 1"
      fill="#734a1c"
      d="M 137.5,213.5 C 138.782,214.708 138.782,216.042 137.5,217.5C 136.893,217.376 136.56,217.043 136.5,216.5C 137.404,215.791 137.737,214.791 137.5,213.5 Z"
    /></g>
  <g><path
      style="opacity: 1"
      fill="#411a10"
      d="M 110.5,216.5 C 108.485,217.924 106.152,218.59 103.5,218.5C 105.515,217.076 107.848,216.41 110.5,216.5 Z"
    /></g>
  <g><path
      style="opacity: 1"
      fill="#f24610"
      d="M 271.5,212.5 C 273.094,215.764 275.427,218.431 278.5,220.5C 279.386,221.776 280.386,221.776 281.5,220.5C 281.145,219.478 280.478,218.811 279.5,218.5C 278.5,217.167 277.5,215.833 276.5,214.5C 280.534,214.495 284.534,214.162 288.5,213.5C 289.728,217.015 291.062,220.515 292.5,224C 292.095,224.945 291.428,225.612 290.5,226C 287.518,226.498 284.518,226.665 281.5,226.5C 282.097,236.569 279.93,245.902 275,254.5C 272.278,257.845 268.945,258.511 265,256.5C 260.628,256.557 257.128,258.224 254.5,261.5C 252.078,262.085 250.411,263.585 249.5,266C 247.19,266.497 244.857,266.663 242.5,266.5C 241.826,264.976 240.826,263.642 239.5,262.5C 240.325,261.614 241.325,261.281 242.5,261.5C 242.649,260.448 242.483,259.448 242,258.5C 237.19,255.405 237.69,253.738 243.5,253.5C 249.757,252.417 254.923,249.417 259,244.5C 264.276,234.543 267.109,223.876 267.5,212.5C 268.574,210.312 269.908,210.312 271.5,212.5 Z"
    /></g>
  <g><path
      style="opacity: 1"
      fill="#fed860"
      d="M 279.5,218.5 C 280.478,218.811 281.145,219.478 281.5,220.5C 280.386,221.776 279.386,221.776 278.5,220.5C 278.328,219.508 278.662,218.842 279.5,218.5 Z"
    /></g>
  <g><path
      style="opacity: 1"
      fill="#e2e3d4"
      d="M 130.5,227.5 C 132.716,228.203 134.549,229.536 136,231.5C 141.196,243.097 138.696,252.597 128.5,260C 104.133,265.227 79.8,270.561 55.5,276C 49.3914,276.889 43.7248,275.722 38.5,272.5C 35.8103,270.807 33.8103,268.473 32.5,265.5C 60.7728,260.474 88.7728,254.641 116.5,248C 118.96,246.542 121.127,244.709 123,242.5C 124.467,236.899 126.967,231.899 130.5,227.5 Z"
    /></g>
  <g><path
      style="opacity: 0.845"
      fill="#774d23"
      d="M 380.5,208.5 C 380.793,220.55 380.459,232.55 379.5,244.5C 379.167,244.5 378.833,244.5 378.5,244.5C 378.5,239.167 378.5,233.833 378.5,228.5C 379.167,221.833 379.833,215.167 380.5,208.5 Z"
    /></g>
  <g><path
      style="opacity: 0.035"
      fill="#332518"
      d="M 378.5,244.5 C 378.833,244.5 379.167,244.5 379.5,244.5C 379.139,248.915 377.806,252.915 375.5,256.5C 376.5,252.5 377.5,248.5 378.5,244.5 Z"
    /></g>
  <g><path
      style="opacity: 1"
      fill="#081617"
      d="M 359.5,108.5 C 361.005,112.676 363.339,116.343 366.5,119.5C 367.09,120.766 367.59,122.099 368,123.5C 368.5,135.162 368.667,146.829 368.5,158.5C 367.356,178.992 366.689,199.659 366.5,220.5C 361.777,250.717 344.11,264.883 313.5,263C 291.645,301.776 258.978,326.276 215.5,336.5C 209.651,337.196 203.984,338.196 198.5,339.5C 158.112,342.154 121.779,331.321 89.5,307C 79.1495,308.074 68.8161,309.574 58.5,311.5C 54.8538,311.572 51.3538,310.905 48,309.5C 47.5,309.667 47,309.833 46.5,310C 47.8228,310.816 48.4894,311.983 48.5,313.5C 44.347,309.925 40.0137,306.591 35.5,303.5C 31.8564,299.012 28.3564,294.345 25,289.5C 22.9396,283.258 22.4396,276.924 23.5,270.5C 20.7121,266.253 19.0454,261.586 18.5,256.5C 19.5,256.5 20.5,256.5 21.5,256.5C 22.1667,252.5 22.8333,252.5 23.5,256.5C 24.5,256.5 25.5,256.5 26.5,256.5C 26.1667,258.5 25.8333,260.5 25.5,262.5C 26.5,262.5 27.5,262.5 28.5,262.5C 28.2627,261.209 28.596,260.209 29.5,259.5C 30.5,261.5 31.5,263.5 32.5,265.5C 33.8103,268.473 35.8103,270.807 38.5,272.5C 33.4637,274.162 33.4637,275.495 38.5,276.5C 38.4208,277.93 38.7542,279.264 39.5,280.5C 38.9747,281.192 38.3081,281.692 37.5,282C 39.9929,283.419 42.3263,284.919 44.5,286.5C 43.5,286.5 42.5,286.5 41.5,286.5C 39.3295,284.914 36.9962,283.58 34.5,282.5C 33.5416,282.047 32.7083,281.381 32,280.5C 33.7079,291.05 39.8745,297.716 50.5,300.5C 69.6703,298.2 88.6703,294.866 107.5,290.5C 104.592,291.812 101.592,293.145 98.5,294.5C 99.6461,295.719 100.646,297.052 101.5,298.5C 102.711,297.726 102.711,296.893 101.5,296C 103.81,295.503 106.143,295.337 108.5,295.5C 106.686,299.37 108.019,301.037 112.5,300.5C 110.208,301.34 107.875,302.34 105.5,303.5C 110.564,307.031 115.897,310.031 121.5,312.5C 133.974,319.213 147.307,323.546 161.5,325.5C 199.805,332.07 234.472,323.57 265.5,300C 260.356,299.334 256.023,297.167 252.5,293.5C 249.162,289.821 247.162,285.488 246.5,280.5C 247.222,280.918 247.722,281.584 248,282.5C 249.087,280.068 249.587,280.402 249.5,283.5C 250.833,283.5 252.167,283.5 253.5,283.5C 253.16,280.028 253.493,277.361 254.5,275.5C 254.448,277.903 254.781,280.236 255.5,282.5C 259.317,289.522 264.984,291.355 272.5,288C 277.153,284.212 278.653,279.378 277,273.5C 276.34,271.676 275.173,270.343 273.5,269.5C 268.582,265.521 263.582,265.521 258.5,269.5C 257.677,266.52 256.343,263.853 254.5,261.5C 257.128,258.224 260.628,256.557 265,256.5C 268.945,258.511 272.278,257.845 275,254.5C 279.93,245.902 282.097,236.569 281.5,226.5C 284.518,226.665 287.518,226.498 290.5,226C 291.428,225.612 292.095,224.945 292.5,224C 291.062,220.515 289.728,217.015 288.5,213.5C 291.183,216.516 294.183,219.182 297.5,221.5C 298.647,221.182 299.481,220.516 300,219.5C 300.671,220.252 301.504,220.586 302.5,220.5C 304.071,223.231 306.405,225.065 309.5,226C 321.209,227.964 328.376,223.13 331,211.5C 333.369,176.687 335.536,141.853 337.5,107C 338.919,99.8254 336.919,93.9921 331.5,89.5C 330.833,89.5 330.5,89.1667 330.5,88.5C 333.589,87.2154 336.922,86.5488 340.5,86.5C 339.305,91.4292 341.138,94.4292 346,95.5C 346.696,98.4781 347.196,101.478 347.5,104.5C 349.857,104.337 352.19,104.503 354.5,105C 355.509,107.172 357.176,108.338 359.5,108.5 Z"
    /></g>
  <g><path
      style="opacity: 1"
      fill="#f04711"
      d="M 298.5,250.5 C 298.665,253.518 298.498,256.518 298,259.5C 296.487,263.188 294.987,266.855 293.5,270.5C 291.878,273.455 289.878,276.122 287.5,278.5C 287.561,272.904 285.561,268.237 281.5,264.5C 286.803,256.26 290.137,247.26 291.5,237.5C 293.577,241.988 295.91,246.321 298.5,250.5 Z"
    /></g>
  <g><path
      style="opacity: 1"
      fill="#f29021"
      d="M 303.5,235.5 C 304.541,241.208 307.875,244.542 313.5,245.5C 313.039,242.697 311.705,240.363 309.5,238.5C 311.292,238.366 312.958,238.699 314.5,239.5C 316.144,241.481 317.81,243.481 319.5,245.5C 314.25,246.188 314.25,248.021 319.5,251C 318.552,251.483 317.552,251.649 316.5,251.5C 306.933,248.961 301.933,242.961 301.5,233.5C 302.522,233.855 303.189,234.522 303.5,235.5 Z"
    /></g>
  <g><path
      style="opacity: 1"
      fill="#fcf7ed"
      d="M 303.5,235.5 C 305.5,236.5 307.5,237.5 309.5,238.5C 311.705,240.363 313.039,242.697 313.5,245.5C 307.875,244.542 304.541,241.208 303.5,235.5 Z"
    /></g>
  <g><path
      style="opacity: 1"
      fill="#f0450f"
      d="M 316.5,251.5 C 317.552,251.649 318.552,251.483 319.5,251C 314.25,248.021 314.25,246.188 319.5,245.5C 317.81,243.481 316.144,241.481 314.5,239.5C 331.148,239.253 340.982,230.92 344,214.5C 345.835,179.81 348.002,145.143 350.5,110.5C 353.944,113.458 356.444,117.124 358,121.5C 358.043,154.508 357.376,187.508 356,220.5C 352.192,243.172 339.025,253.506 316.5,251.5 Z"
    /></g>
  <g><path
      style="opacity: 1"
      fill="#fdf5e9"
      d="M 228.5,251.5 C 230.297,252.73 232.297,253.396 234.5,253.5C 236.312,255.461 237.312,257.794 237.5,260.5C 232.167,259.833 229.167,256.833 228.5,251.5 Z"
    /></g>
  <g><path
      style="opacity: 0.227"
      fill="#392b1d"
      d="M 375.5,256.5 C 375.771,258.38 375.104,259.713 373.5,260.5C 373.66,258.847 374.326,257.514 375.5,256.5 Z"
    /></g>
  <g><path
      style="opacity: 1"
      fill="#e98124"
      d="M 228.5,251.5 C 229.167,256.833 232.167,259.833 237.5,260.5C 237.312,257.794 236.312,255.461 234.5,253.5C 237.5,253.5 240.5,253.5 243.5,253.5C 237.69,253.738 237.19,255.405 242,258.5C 242.483,259.448 242.649,260.448 242.5,261.5C 241.325,261.281 240.325,261.614 239.5,262.5C 240.826,263.642 241.826,264.976 242.5,266.5C 233.395,265.395 227.728,260.395 225.5,251.5C 225.98,249.471 226.98,249.471 228.5,251.5 Z"
    /></g>
  <g><path
      style="opacity: 1"
      fill="#eb8a12"
      d="M 298.5,250.5 C 300.146,252.146 301.812,253.812 303.5,255.5C 300.391,260.738 297.058,265.738 293.5,270.5C 294.987,266.855 296.487,263.188 298,259.5C 298.498,256.518 298.665,253.518 298.5,250.5 Z"
    /></g>
  <g><path
      style="opacity: 0.035"
      fill="#32251b"
      d="M 372.5,262.5 C 372.573,264.027 371.906,265.027 370.5,265.5C 370.427,263.973 371.094,262.973 372.5,262.5 Z"
    /></g>
  <g><path
      style="opacity: 0.004"
      fill="#2c221a"
      d="M 370.5,265.5 C 370.262,267.404 369.262,268.738 367.5,269.5C 367.738,267.596 368.738,266.262 370.5,265.5 Z"
    /></g>
  <g><path
      style="opacity: 1"
      fill="#f8f8f8"
      d="M 273.5,269.5 C 270.81,278.535 264.81,282.869 255.5,282.5C 254.781,280.236 254.448,277.903 254.5,275.5C 255.82,273.537 257.154,271.537 258.5,269.5C 263.582,265.521 268.582,265.521 273.5,269.5 Z"
    /></g>
  <g><path
      style="opacity: 1"
      fill="#fbf3e1"
      d="M 160.5,268.5 C 162.883,270.358 165.55,271.692 168.5,272.5C 170.85,274.213 171.85,276.547 171.5,279.5C 165.536,278.203 161.87,274.536 160.5,268.5 Z"
    /></g>
  <g><path
      style="opacity: 1"
      fill="#f1430f"
      d="M 215.5,242.5 C 219.524,253.948 217.691,264.282 210,273.5C 200.483,283.615 188.983,287.615 175.5,285.5C 176.552,285.649 177.552,285.483 178.5,285C 175.297,283.828 173.797,281.661 174,278.5C 175.241,280.421 176.741,280.754 178.5,279.5C 176.469,277.69 174.802,275.69 173.5,273.5C 196.097,272.073 208.931,260.073 212,237.5C 213.189,239.233 214.356,240.9 215.5,242.5 Z"
    /></g>
  <g><path
      style="opacity: 0.055"
      fill="#3b2e20"
      d="M 361.5,274.5 C 361.027,275.906 360.027,276.573 358.5,276.5C 358.973,275.094 359.973,274.427 361.5,274.5 Z"
    /></g>
  <g><path
      style="opacity: 1"
      fill="#f2911c"
      d="M 160.5,268.5 C 161.87,274.536 165.536,278.203 171.5,279.5C 171.85,276.547 170.85,274.213 168.5,272.5C 170.117,273.038 171.784,273.371 173.5,273.5C 174.802,275.69 176.469,277.69 178.5,279.5C 176.741,280.754 175.241,280.421 174,278.5C 173.797,281.661 175.297,283.828 178.5,285C 177.552,285.483 176.552,285.649 175.5,285.5C 165.25,283.089 159.417,276.756 158,266.5C 158.708,267.381 159.542,268.047 160.5,268.5 Z"
    /></g>
  <g><path
      style="opacity: 1"
      fill="#e2e3d4"
      d="M 273.5,269.5 C 275.173,270.343 276.34,271.676 277,273.5C 278.653,279.378 277.153,284.212 272.5,288C 264.984,291.355 259.317,289.522 255.5,282.5C 264.81,282.869 270.81,278.535 273.5,269.5 Z"
    /></g>
  <g><path
      style="opacity: 0.141"
      fill="#8c6034"
      d="M 351.5,279.5 C 347.598,281.489 343.598,281.823 339.5,280.5C 343.519,280.354 347.519,280.021 351.5,279.5 Z"
    /></g>
  <g><path
      style="opacity: 0.263"
      fill="#31241a"
      d="M 327.5,279.5 C 327.573,281.027 326.906,282.027 325.5,282.5C 325.427,280.973 326.094,279.973 327.5,279.5 Z"
    /></g>
  <g><path
      style="opacity: 1"
      fill="#f8f0e4"
      d="M 34.5,282.5 C 36.9962,283.58 39.3295,284.914 41.5,286.5C 43.8504,288.213 44.8504,290.547 44.5,293.5C 38.4156,292.413 35.0823,288.746 34.5,282.5 Z"
    /></g>
  <g><path
      style="opacity: 1"
      fill="#f0440e"
      d="M 107.5,290.5 C 88.6703,294.866 69.6703,298.2 50.5,300.5C 48.9835,298.814 47.6502,296.981 46.5,295C 46.6667,294.5 46.8333,294 47,293.5C 49.3515,296.433 50.3515,296.099 50,292.5C 47.9506,291.286 46.4506,289.62 45.5,287.5C 49.446,288.527 53.446,288.694 57.5,288C 81.256,283.414 104.923,278.414 128.5,273C 137.214,270.453 143.214,264.953 146.5,256.5C 154.032,271.276 149.698,280.776 133.5,285C 124.728,286.528 116.061,288.361 107.5,290.5 Z"
    /></g>
  <g><path
      style="opacity: 0.012"
      fill="#281f16"
      d="M 323.5,286.5 C 323.573,288.027 322.906,289.027 321.5,289.5C 321.427,287.973 322.094,286.973 323.5,286.5 Z"
    /></g>
  <g><path
      style="opacity: 1"
      fill="#f0420f"
      d="M 232.5,273.5 C 232.934,285.456 227.934,294.623 217.5,301C 204.222,309.049 190.888,309.383 177.5,302C 175.333,299.833 173.167,297.667 171,295.5C 168.778,299.388 165.612,302.221 161.5,304C 148.137,307.304 134.804,310.138 121.5,312.5C 115.897,310.031 110.564,307.031 105.5,303.5C 107.875,302.34 110.208,301.34 112.5,300.5C 122.179,298.864 131.846,297.031 141.5,295C 147.687,292.991 153.187,289.824 158,285.5C 170.032,296.611 183.865,299.444 199.5,294C 212.351,290.314 220.685,282.148 224.5,269.5C 227.368,270.353 230.035,271.686 232.5,273.5 Z"
    /></g>
  <g><path
      style="opacity: 1"
      fill="#f18b18"
      d="M 34.5,282.5 C 35.0823,288.746 38.4156,292.413 44.5,293.5C 44.8504,290.547 43.8504,288.213 41.5,286.5C 42.5,286.5 43.5,286.5 44.5,286.5C 44.5,287.167 44.8333,287.5 45.5,287.5C 46.4506,289.62 47.9506,291.286 50,292.5C 50.3515,296.099 49.3515,296.433 47,293.5C 46.8333,294 46.6667,294.5 46.5,295C 47.6502,296.981 48.9835,298.814 50.5,300.5C 39.8745,297.716 33.7079,291.05 32,280.5C 32.7083,281.381 33.5416,282.047 34.5,282.5 Z"
    /></g>
  <g><path
      style="opacity: 0.008"
      fill="#261d16"
      d="M 317.5,295.5 C 317.573,297.027 316.906,298.027 315.5,298.5C 315.427,296.973 316.094,295.973 317.5,295.5 Z"
    /></g>
  <g><path
      style="opacity: 1"
      fill="#f14310"
      d="M 369.5,119.5 C 371.167,121.833 373.167,123.833 375.5,125.5C 375.738,127.404 376.738,128.738 378.5,129.5C 379.674,130.514 380.34,131.847 380.5,133.5C 380.957,156.473 380.957,179.473 380.5,202.5C 380.5,204.5 380.5,206.5 380.5,208.5C 379.833,215.167 379.167,221.833 378.5,228.5C 377.542,228.047 376.708,227.381 376,226.5C 376.507,241.994 371.34,255.161 360.5,266C 349.606,274.909 337.772,276.742 325,271.5C 298.857,317.516 259.357,344.016 206.5,351C 185.761,352.988 165.761,349.988 146.5,342C 132.274,335.061 118.607,327.394 105.5,319C 93.7681,321.052 81.9348,322.885 70,324.5C 66.348,324.519 62.848,323.852 59.5,322.5C 58.3951,321.4 57.0618,320.733 55.5,320.5C 54.1667,318.5 52.5,316.833 50.5,315.5C 49.5,315.167 48.8333,314.5 48.5,313.5C 48.4894,311.983 47.8228,310.816 46.5,310C 47,309.833 47.5,309.667 48,309.5C 51.3538,310.905 54.8538,311.572 58.5,311.5C 68.8161,309.574 79.1495,308.074 89.5,307C 121.779,331.321 158.112,342.154 198.5,339.5C 203.536,339.412 208.536,338.912 213.5,338C 214.416,337.722 215.082,337.222 215.5,336.5C 258.978,326.276 291.645,301.776 313.5,263C 344.11,264.883 361.777,250.717 366.5,220.5C 368.075,200.021 368.742,179.354 368.5,158.5C 368.667,146.829 368.5,135.162 368,123.5C 367.59,122.099 367.09,120.766 366.5,119.5C 367.202,118.884 368.202,118.884 369.5,119.5 Z"
    /></g>
  <g><path
      style="opacity: 1"
      fill="#fc8f14"
      d="M 232.5,273.5 C 236.987,275.455 241.654,276.788 246.5,277.5C 246.5,278.5 246.5,279.5 246.5,280.5C 247.162,285.488 249.162,289.821 252.5,293.5C 225.568,311.443 195.901,318.276 163.5,314C 159.5,317.667 159.5,321.333 163.5,325C 162.906,325.464 162.239,325.631 161.5,325.5C 147.307,323.546 133.974,319.213 121.5,312.5C 134.804,310.138 148.137,307.304 161.5,304C 165.612,302.221 168.778,299.388 171,295.5C 173.167,297.667 175.333,299.833 177.5,302C 190.888,309.383 204.222,309.049 217.5,301C 227.934,294.623 232.934,285.456 232.5,273.5 Z"
    /></g>
  <g><path
      style="opacity: 1"
      fill="#f2480f"
      d="M 252.5,293.5 C 256.023,297.167 260.356,299.334 265.5,300C 234.472,323.57 199.805,332.07 161.5,325.5C 162.239,325.631 162.906,325.464 163.5,325C 159.5,321.333 159.5,317.667 163.5,314C 195.901,318.276 225.568,311.443 252.5,293.5 Z"
    /></g>
  <g><path
      style="opacity: 0.071"
      fill="#382115"
      d="M 50.5,315.5 C 52.5,316.833 54.1667,318.5 55.5,320.5C 52.8333,319.833 51.1667,318.167 50.5,315.5 Z"
    /></g>
  <g><path
      style="opacity: 0.047"
      fill="#4b3c2b"
      d="M 308.5,306.5 C 304.833,312.167 300.167,316.833 294.5,320.5C 298.833,315.5 303.5,310.833 308.5,306.5 Z"
    /></g>
  <g><path
      style="opacity: 0.898"
      fill="#7d4921"
      d="M 55.5,320.5 C 57.0618,320.733 58.3951,321.4 59.5,322.5C 59.8333,323.167 60.1667,323.833 60.5,324.5C 58.2512,323.92 56.5846,322.587 55.5,320.5 Z"
    /></g>
  <g><path
      style="opacity: 0.02"
      fill="#30271d"
      d="M 291.5,323.5 C 291.027,324.906 290.027,325.573 288.5,325.5C 288.973,324.094 289.973,323.427 291.5,323.5 Z"
    /></g>
  <g><path
      style="opacity: 0.545"
      fill="#6a4b26"
      d="M 60.5,324.5 C 62.0269,324.427 63.0269,325.094 63.5,326.5C 61.9731,326.573 60.9731,325.906 60.5,324.5 Z"
    /></g>
  <g><path
      style="opacity: 1"
      fill="#8e5924"
      d="M 65.5,327.5 C 68.855,327.69 71.855,328.69 74.5,330.5C 71.0836,330.472 68.0836,329.472 65.5,327.5 Z"
    /></g>
  <g><path
      style="opacity: 0.027"
      fill="#30261d"
      d="M 287.5,326.5 C 287.027,327.906 286.027,328.573 284.5,328.5C 284.973,327.094 285.973,326.427 287.5,326.5 Z"
    /></g>
  <g><path
      style="opacity: 0.027"
      fill="#312519"
      d="M 91.5,329.5 C 85.9104,331.55 80.2437,331.883 74.5,330.5C 80.1886,330.468 85.8552,330.134 91.5,329.5 Z"
    /></g>
  <g><path
      style="opacity: 0.584"
      fill="#694424"
      d="M 118.5,329.5 C 120.027,329.427 121.027,330.094 121.5,331.5C 119.973,331.573 118.973,330.906 118.5,329.5 Z"
    /></g>
  <g><path
      style="opacity: 0.522"
      fill="#6b4825"
      d="M 121.5,331.5 C 123.027,331.427 124.027,332.094 124.5,333.5C 122.973,333.573 121.973,332.906 121.5,331.5 Z"
    /></g>
  <g><path
      style="opacity: 0.008"
      fill="#241f1a"
      d="M 280.5,331.5 C 280.027,332.906 279.027,333.573 277.5,333.5C 277.973,332.094 278.973,331.427 280.5,331.5 Z"
    /></g>
  <g><path
      style="opacity: 0.357"
      fill="#513c24"
      d="M 124.5,333.5 C 126.027,333.427 127.027,334.094 127.5,335.5C 125.973,335.573 124.973,334.906 124.5,333.5 Z"
    /></g>
  <g><path
      style="opacity: 0.035"
      fill="#31281e"
      d="M 275.5,334.5 C 275.027,335.906 274.027,336.573 272.5,336.5C 272.973,335.094 273.973,334.427 275.5,334.5 Z"
    /></g>
  <g><path
      style="opacity: 1"
      fill="#ee7f15"
      d="M 378.5,228.5 C 378.5,233.833 378.5,239.167 378.5,244.5C 377.5,248.5 376.5,252.5 375.5,256.5C 374.326,257.514 373.66,258.847 373.5,260.5C 373.672,261.492 373.338,262.158 372.5,262.5C 371.094,262.973 370.427,263.973 370.5,265.5C 368.738,266.262 367.738,267.596 367.5,269.5C 366.109,271.89 364.109,273.557 361.5,274.5C 359.973,274.427 358.973,275.094 358.5,276.5C 356.574,278.293 354.241,279.293 351.5,279.5C 347.519,280.021 343.519,280.354 339.5,280.5C 336.565,280.283 333.731,279.617 331,278.5C 329.744,278.648 328.577,278.982 327.5,279.5C 326.094,279.973 325.427,280.973 325.5,282.5C 325.34,284.153 324.674,285.486 323.5,286.5C 322.094,286.973 321.427,287.973 321.5,289.5C 320.66,291.853 319.326,293.853 317.5,295.5C 316.094,295.973 315.427,296.973 315.5,298.5C 313.883,301.784 311.55,304.451 308.5,306.5C 303.5,310.833 298.833,315.5 294.5,320.5C 293.833,321.833 292.833,322.833 291.5,323.5C 289.973,323.427 288.973,324.094 288.5,325.5C 288.5,326.167 288.167,326.5 287.5,326.5C 285.973,326.427 284.973,327.094 284.5,328.5C 283.564,329.974 282.23,330.974 280.5,331.5C 278.973,331.427 277.973,332.094 277.5,333.5C 277.158,334.338 276.492,334.672 275.5,334.5C 273.973,334.427 272.973,335.094 272.5,336.5C 268.309,339.668 263.642,342.002 258.5,343.5C 256.447,343.402 254.78,344.069 253.5,345.5C 249.463,346.065 245.797,347.399 242.5,349.5C 240.102,349.259 238.102,349.926 236.5,351.5C 234.958,352.301 233.292,352.634 231.5,352.5C 226.23,352.763 221.23,353.763 216.5,355.5C 201.698,357.21 187.032,356.543 172.5,353.5C 170.485,352.076 168.152,351.41 165.5,351.5C 165.167,351.5 164.833,351.5 164.5,351.5C 160.915,349.194 156.915,347.861 152.5,347.5C 150.824,345.166 148.491,344.166 145.5,344.5C 141.418,343.624 137.751,341.957 134.5,339.5C 134.027,338.094 133.027,337.427 131.5,337.5C 129.847,337.34 128.514,336.674 127.5,335.5C 127.027,334.094 126.027,333.427 124.5,333.5C 124.027,332.094 123.027,331.427 121.5,331.5C 121.027,330.094 120.027,329.427 118.5,329.5C 117.738,327.738 116.404,326.738 114.5,326.5C 112.167,326.5 109.833,326.5 107.5,326.5C 103.878,326.322 100.544,326.989 97.5,328.5C 95.6208,329.341 93.6208,329.675 91.5,329.5C 85.8552,330.134 80.1886,330.468 74.5,330.5C 71.855,328.69 68.855,327.69 65.5,327.5C 64.5084,327.672 63.8417,327.338 63.5,326.5C 63.0269,325.094 62.0269,324.427 60.5,324.5C 60.1667,323.833 59.8333,323.167 59.5,322.5C 62.848,323.852 66.348,324.519 70,324.5C 81.9348,322.885 93.7681,321.052 105.5,319C 118.607,327.394 132.274,335.061 146.5,342C 165.761,349.988 185.761,352.988 206.5,351C 259.357,344.016 298.857,317.516 325,271.5C 337.772,276.742 349.606,274.909 360.5,266C 371.34,255.161 376.507,241.994 376,226.5C 376.708,227.381 377.542,228.047 378.5,228.5 Z"
    /></g>
  <g><path
      style="opacity: 0.094"
      fill="#35271b"
      d="M 107.5,326.5 C 104.411,327.785 101.078,328.451 97.5,328.5C 100.544,326.989 103.878,326.322 107.5,326.5 Z"
    /></g>
  <g><path
      style="opacity: 0.859"
      fill="#6e4724"
      d="M 114.5,326.5 C 116.404,326.738 117.738,327.738 118.5,329.5C 116.596,329.262 115.262,328.262 114.5,326.5 Z"
    /></g>
  <g><path
      style="opacity: 0.329"
      fill="#543f28"
      d="M 131.5,337.5 C 133.027,337.427 134.027,338.094 134.5,339.5C 132.973,339.573 131.973,338.906 131.5,337.5 Z"
    /></g>
  <g><path
      style="opacity: 1"
      fill="#b13914"
      d="M 215.5,336.5 C 215.082,337.222 214.416,337.722 213.5,338C 208.536,338.912 203.536,339.412 198.5,339.5C 203.984,338.196 209.651,337.196 215.5,336.5 Z"
    /></g>
  <g><path
      style="opacity: 1"
      fill="#885421"
      d="M 145.5,344.5 C 148.491,344.166 150.824,345.166 152.5,347.5C 149.843,347.065 147.509,346.065 145.5,344.5 Z"
    /></g>
  <g><path
      style="opacity: 0.259"
      fill="#3e2e1f"
      d="M 258.5,343.5 C 257.22,344.931 255.553,345.598 253.5,345.5C 254.78,344.069 256.447,343.402 258.5,343.5 Z"
    /></g>
  <g><path
      style="opacity: 0.027"
      fill="#443222"
      d="M 253.5,345.5 C 250.203,347.601 246.537,348.935 242.5,349.5C 245.797,347.399 249.463,346.065 253.5,345.5 Z"
    /></g>
  <g><path
      style="opacity: 0.882"
      fill="#6b4620"
      d="M 152.5,347.5 C 156.915,347.861 160.915,349.194 164.5,351.5C 160.216,350.739 156.216,349.405 152.5,347.5 Z"
    /></g>
  <g><path
      style="opacity: 0.247"
      fill="#412f20"
      d="M 242.5,349.5 C 240.786,350.738 238.786,351.405 236.5,351.5C 238.102,349.926 240.102,349.259 242.5,349.5 Z"
    /></g>
  <g><path
      style="opacity: 0.525"
      fill="#53391e"
      d="M 165.5,351.5 C 168.152,351.41 170.485,352.076 172.5,353.5C 169.848,353.59 167.515,352.924 165.5,351.5 Z"
    /></g>
  <g><path
      style="opacity: 0.278"
      fill="#3e2d1d"
      d="M 231.5,352.5 C 226.77,354.237 221.77,355.237 216.5,355.5C 221.23,353.763 226.23,352.763 231.5,352.5 Z"
    /></g>
</svg>
