<?xml version="1.0" encoding="utf-8"?>

<!-- Uploaded to: SVG Repo, www.svgrepo.com, Generator: SVG Repo Mixer Tools -->
<svg
  version="1.1"
  id="Icons"
  xmlns="http://www.w3.org/2000/svg"
  xmlns:xlink="http://www.w3.org/1999/xlink"
  viewBox="0 0 32 32"
  xml:space="preserve"
>
  <style type="text/css">
  .st0 {
    fill: #ffffff;
  }
  .st1 {
    fill: #3a559f;
  }
  .st2 {
    fill: #f4f4f4;
  }
  .st3 {
    fill: #ff0084;
  }
  .st4 {
    fill: #0063db;
  }
  .st5 {
    fill: #00aced;
  }
  .st6 {
    fill: #ffec06;
  }
  .st7 {
    fill: #ff0000;
  }
  .st8 {
    fill: #25d366;
  }
  .st9 {
    fill: #0088ff;
  }
  .st10 {
    fill: #314358;
  }
  .st11 {
    fill: #ee6996;
  }
  .st12 {
    fill: #01aef3;
  }
  .st13 {
    fill: #fffeff;
  }
  .st14 {
    fill: #f06a35;
  }
  .st15 {
    fill: #00adef;
  }
  .st16 {
    fill: #1769ff;
  }
  .st17 {
    fill: #1ab7ea;
  }
  .st18 {
    fill: #6001d1;
  }
  .st19 {
    fill: #e41214;
  }
  .st20 {
    fill: #05ce78;
  }
  .st21 {
    fill: #7b519c;
  }
  .st22 {
    fill: #ff4500;
  }
  .st23 {
    fill: #00f076;
  }
  .st24 {
    fill: #ffc900;
  }
  .st25 {
    fill: #00d6ff;
  }
  .st26 {
    fill: #ff3a44;
  }
  .st27 {
    fill: #ff6a36;
  }
  .st28 {
    fill: #0061fe;
  }
  .st29 {
    fill: #f7981c;
  }
  .st30 {
    fill: #ee1b22;
  }
  .st31 {
    fill: #ef3561;
  }
  .st32 {
    fill: none;
    stroke: #ffffff;
    stroke-width: 2;
    stroke-miterlimit: 10;
  }
  .st33 {
    fill: #0097d3;
  }
  .st34 {
    fill: #01308a;
  }
  .st35 {
    fill: #019cde;
  }
  .st36 {
    fill: #ffd049;
  }
  .st37 {
    fill: #16a05d;
  }
  .st38 {
    fill: #4486f4;
  }
  .st39 {
    fill: none;
  }
  .st40 {
    fill: #34a853;
  }
  .st41 {
    fill: #4285f4;
  }
  .st42 {
    fill: #fbbc05;
  }
  .st43 {
    fill: #ea4335;
  }
  </style>
  <g>
    <g>
      <g>
        <path
          class="st15"
          d="M30,15H17c-0.6,0-1-0.4-1-1V3.3c0-0.5,0.4-0.9,0.8-1l13-2.3c0.3,0,0.6,0,0.8,0.2C30.9,0.4,31,0.7,31,1v13
				C31,14.6,30.6,15,30,15z"
        />
      </g>
      <g>
        <path
          class="st15"
          d="M13,15H1c-0.6,0-1-0.4-1-1V6c0-0.5,0.4-0.9,0.8-1l12-2c0.3,0,0.6,0,0.8,0.2C13.9,3.4,14,3.7,14,4v10
				C14,14.6,13.6,15,13,15z"
        />
      </g>
      <g>
        <path
          class="st15"
          d="M30,32c-0.1,0-0.1,0-0.2,0l-13-2.3c-0.5-0.1-0.8-0.5-0.8-1V18c0-0.6,0.4-1,1-1h13c0.6,0,1,0.4,1,1v13
				c0,0.3-0.1,0.6-0.4,0.8C30.5,31.9,30.2,32,30,32z"
        />
      </g>
      <g>
        <path
          class="st15"
          d="M13,29c-0.1,0-0.1,0-0.2,0l-12-2C0.4,26.9,0,26.5,0,26v-8c0-0.6,0.4-1,1-1h12c0.6,0,1,0.4,1,1v10
				c0,0.3-0.1,0.6-0.4,0.8C13.5,28.9,13.2,29,13,29z"
        />
      </g>
    </g>
  </g>
</svg>
